:SAMPLES-PER-SECOND 30
:FULLY-SPECIFIED
:DEGREES
893
root  -29.3437 38.4432 -2.75471 116.802 86.9955 120.02
RightUpLeg  -21.4559 -6.86701 -3.0504
RightLeg  10.2942 1.51973 0.649856
RightFoot  2.88822 0.00169216 -0.140224
RightToes  -1.16417e-010 0 -3.6325e-017
Spine  5.24482 -0.917108 -0.982956
Spine1  6.84894 -1.61299 2.3792
HEad  -15.9461 -3.4678 -1.25
LeftShoulder1  -0.599938 5.04961 -32.6698
LeftArm  16.5394 -1.90329 -45.0756
LeftForeArm  22.8193 -32.4133 -5.85045
LeftHand  -0.0165647 6.3758 1.85269
RightShoulder  -1.0436 -6.36823 29.8902
RightArm  15.1085 -6.86141 44.3547
RightForeArm  22.4779 8.53793 7.23345
RightHand  0.00402529 3.78633 -0.230413
LeftUpLeg  16.2282 3.23184 -2.28114
LeftLeg  15.9947 -0.80932 0.299714
LeftFoot  -20.9156 0.158374 0.420651
LeftToes  3.13772e-010 -3.14513e-011 3.96022e-013
894
root  -27.9528 38.3 -2.53162 144.202 87.7648 147.47
RightUpLeg  -21.5874 -5.82422 -1.67096
RightLeg  14.121 1.23005 0.30373
RightFoot  6.17085 -0.0456371 0.574264
RightToes  -1.16417e-010 0 -3.6325e-017
Spine  4.86534 -0.842123 2.17127
Spine1  6.76452 -1.06247 1.20217
HEad  -16.2666 -4.76539 -1.63791
LeftShoulder1  -0.596127 5.01402 -33.3071
LeftArm  19.356 -0.172762 -45.0771
LeftForeArm  20.8281 -29.0993 -5.15805
LeftHand  -0.0207547 6.38405 1.4918
RightShoulder  -1.03148 -6.32412 30.0255
RightArm  15.0018 -4.88548 44.7278
RightForeArm  22.3471 7.55493 7.42326
RightHand  -0.0282663 3.52925 -0.573987
LeftUpLeg  17.3598 2.24559 -0.203602
LeftLeg  18.3274 -1.55183 -0.215556
LeftFoot  -20.8147 -0.0822693 -2.49652
LeftToes  3.13772e-010 -3.14513e-011 3.96022e-013
895
root  -26.5996 38.2162 -2.33439 -172.611 89.0999 -169.532
RightUpLeg  -22.0548 -5.36689 0.400819
RightLeg  18.5227 2.12848 0.629854
RightFoot  4.4475 0.132736 -0.752691
RightToes  -1.16417e-010 0 -3.6325e-017
Spine  4.41986 -0.451003 6.36717
Spine1  6.74409 0.0699842 -0.890164
HEad  -16.6703 -4.89357 -2.13211
LeftShoulder1  -0.642489 5.11259 -33.7782
LeftArm  20.5782 2.2826 -45.1804
LeftForeArm  19.3505 -25.3268 -4.38425
LeftHand  -0.0274101 7.14792 0.698486
RightShoulder  -1.02372 -6.3057 29.9817
RightArm  14.7487 -2.00711 45.8197
RightForeArm  22.3551 5.47542 7.6731
RightHand  -0.130602 3.95388 -1.83731
LeftUpLeg  17.2677 2.24992 1.95634
LeftLeg  22.3445 -2.13695 -0.659795
LeftFoot  -19.2109 -0.317752 -6.36209
LeftToes  3.13772e-010 -3.14513e-011 3.96022e-013
896
root  -25.3539 38.1999 -2.08325 -121.585 88.7578 -118.567
RightUpLeg  -21.6806 -5.53302 1.7484
RightLeg  21.6712 2.44952 0.84332
RightFoot  2.29624 0.300688 -2.37731
RightToes  -1.16417e-010 0 -3.6325e-017
Spine  4.54409 -0.331168 8.62593
Spine1  6.46478 0.591269 -1.14933
HEad  -16.4889 -4.81386 -1.55128
LeftShoulder1  -0.609111 5.02165 -33.9643
LeftArm  18.6097 5.43933 -45.0275
LeftForeArm  19.5487 -21.2244 -4.70277
LeftHand  -0.0388212 7.67906 0.125137
RightShoulder  -0.95392 -6.14308 29.5787
RightArm  14.6183 0.362936 47.0274
RightForeArm  24.903 5.07357 7.64024
RightHand  0.0450761 2.29162 0.461101
LeftUpLeg  15.5302 2.69066 4.2931
LeftLeg  28.603 -4.19416 -2.14892
LeftFoot  -15.0415 -0.231325 -10.4888
LeftToes  3.13772e-010 -3.14513e-011 3.96022e-013
897
root  -24.209 38.235 -1.78682 -139.097 87.4334 -136.385
RightUpLeg  -20.9892 -5.50576 2.68491
RightLeg  23.6731 1.15261 0.333441
RightFoot  -0.207897 0.302564 -3.11072
RightToes  -1.16417e-010 0 -3.6325e-017
Spine  4.17343 -0.548372 9.40309
Spine1  6.53963 0.425622 -0.163645
HEad  -16.5487 -5.14017 -1.71305
LeftShoulder1  -0.619041 5.04586 -33.9748
LeftArm  10.7001 7.40883 -44.4492
LeftForeArm  26.2134 -15.7444 -7.60023
LeftHand  -0.0544933 7.96544 -0.468214
RightShoulder  -0.980685 -6.20828 29.6975
RightArm  14.8304 3.36072 47.7976
RightForeArm  24.8897 5.15173 7.75931
RightHand  0.0324164 1.58819 0.4052
LeftUpLeg  11.1982 1.18863 5.86678
LeftLeg  37.2559 -4.6769 -3.42135
LeftFoot  -7.38704 0.444758 -12.6229
LeftToes  3.13772e-010 -3.14513e-011 3.96022e-013
898
root  -23.1266 38.3114 -1.54512 -141.514 85.9579 -138.819
RightUpLeg  -19.4916 -5.87725 3.73007
RightLeg  24.5888 0.441892 0.011947
RightFoot  -2.38917 0.252559 -3.41617
RightToes  -1.16417e-010 0 -3.6325e-017
Spine  4.24645 -0.699397 11.4134
Spine1  6.43026 0.684867 -0.736238
HEad  -16.6841 -6.02548 -0.769065
LeftShoulder1  -0.575427 4.95184 -33.5841
LeftArm  3.2682 8.78111 -43.6893
LeftForeArm  34.4042 -10.9047 -9.48449
LeftHand  -0.105174 9.07794 -1.6445
RightShoulder  -1.03047 -6.32832 29.9345
RightArm  15.1764 5.83964 48.1711
RightForeArm  22.2974 6.44491 7.89058
RightHand  -0.0627697 1.91689 -1.18758
LeftUpLeg  6.03093 -0.86899 6.92558
LeftLeg  46.1245 -3.4413 -3.39335
LeftFoot  3.3608 1.23651 -9.83153
LeftToes  3.13772e-010 -3.14513e-011 3.96022e-013
899
root  -22.1112 38.3353 -1.3441 -142.309 84.9652 -139.447
RightUpLeg  -18.0185 -6.34192 4.47537
RightLeg  25.6586 0.0653556 -0.136911
RightFoot  -4.7352 0.156797 -3.27292
RightToes  -1.16417e-010 0 -3.6325e-017
Spine  4.68514 -0.66902 12.9895
Spine1  6.33677 1.10576 -0.936722
HEad  -16.8911 -7.29836 -0.591898
LeftShoulder1  -0.546789 4.8788 -33.6101
LeftArm  0.0910047 10.4741 -42.5846
LeftForeArm  39.9569 -8.84733 -9.60945
LeftHand  -0.17489 8.98302 -3.87312
RightShoulder  -0.985515 -6.23848 29.4841
RightArm  15.2377 7.96156 48.6859
RightForeArm  19.6922 8.50829 7.61723
RightHand  -0.0581587 3.12949 -1.01594
LeftUpLeg  1.38576 -2.34747 7.55354
LeftLeg  53.3335 -2.04868 -2.51099
LeftFoot  9.286 1.29046 -7.30148
LeftToes  3.13772e-010 -3.14513e-011 3.96022e-013
900
root  -21.093 38.4973 -1.14007 -145.584 84.9734 -142.382
RightUpLeg  -15.6342 -6.8514 4.39845
RightLeg  25.2801 0.354365 0.113341
RightFoot  -6.39592 0.0965125 -3.23095
RightToes  -1.16417e-010 0 -3.6325e-017
Spine  5.10361 -0.383267 13.7406
Spine1  6.34114 1.76874 -1.76964
HEad  -16.9905 -7.30845 0.118405
LeftShoulder1  -0.508136 4.78679 -33.457
LeftArm  -0.897167 12.2695 -41.474
LeftForeArm  41.0793 -8.38986 -9.45661
LeftHand  -0.172917 9.28275 -3.45845
RightShoulder  -0.969716 -6.22701 29.0478
RightArm  16.2859 10.6211 49.3016
RightForeArm  16.7186 10.3504 7.40495
RightHand  -0.0899559 3.48143 -1.42373
LeftUpLeg  -2.46312 -2.99559 7.43488
LeftLeg  58.2447 -1.58811 -2.25553
LeftFoot  6.25171 1.00379 -6.73175
LeftToes  3.13772e-010 -3.14513e-011 3.96022e-013
901
root  -20.0508 38.6942 -0.949663 -148.14 85.6314 -144.811
RightUpLeg  -13.2448 -6.69315 3.98376
RightLeg  24.4518 0.505234 0.29002
RightFoot  -7.70764 0.0509657 -3.26196
RightToes  -1.16417e-010 0 -3.6325e-017
Spine  5.01785 0.0848541 13.9486
Spine1  6.60742 2.48095 -2.63459
HEad  -16.9498 -7.30941 0.155404
LeftShoulder1  -0.534197 4.86259 -33.1626
LeftArm  0.0437628 14.3073 -40.2803
LeftForeArm  39.5144 -9.25913 -9.34342
LeftHand  -0.164907 9.3371 -3.17818
RightShoulder  -0.896002 -6.05166 28.5863
RightArm  17.6319 13.3736 49.8398
RightForeArm  15.0155 12.1673 7.06429
RightHand  -0.0651267 3.73632 -1.10319
LeftUpLeg  -6.1 -3.18071 6.71852
LeftLeg  60.4497 -1.54442 -2.39613
LeftFoot  4.85686 0.771591 -5.62065
LeftToes  3.13772e-010 -3.14513e-011 3.96022e-013
902
root  -19.0471 38.8256 -0.795558 -147.579 86.4772 -144.337
RightUpLeg  -11.3345 -7.13447 3.59172
RightLeg  23.9492 1.60373 0.932263
RightFoot  -9.0335 0.0117442 -3.6055
RightToes  -1.16417e-010 0 -3.6325e-017
Spine  5.04683 0.595095 14.3787
Spine1  6.45194 3.21271 -3.57355
HEad  -16.4067 -7.30532 0.309101
LeftShoulder1  -0.560557 4.93139 -33.1109
LeftArm  1.06709 16.0442 -39.023
LeftForeArm  36.8249 -10.1892 -9.13823
LeftHand  -0.146625 9.13865 -2.84449
RightShoulder  -0.864412 -6.00258 28.004
RightArm  18.3424 16.0998 50.7041
RightForeArm  13.945 13.2512 6.763
RightHand  -0.0502712 5.12137 -0.856763
LeftUpLeg  -9.80316 -3.15393 6.00335
LeftLeg  60.7363 -1.75909 -2.84003
LeftFoot  3.22228 0.536905 -4.36628
LeftToes  3.13772e-010 -3.14513e-011 3.96022e-013
903
root  -18.0157 38.9595 -0.651506 -149.045 87.2748 -145.992
RightUpLeg  -9.21509 -7.60022 3.03389
RightLeg  22.9326 2.52713 1.49731
RightFoot  -10.2567 -0.0326415 -3.89387
RightToes  -1.16417e-010 0 -3.6325e-017
Spine  4.7951 1.01418 14.8056
Spine1  6.20837 3.81358 -4.89285
HEad  -15.793 -6.49911 -0.196163
LeftShoulder1  -0.521056 4.84254 -32.7771
LeftArm  2.45355 17.7738 -38.0233
LeftForeArm  33.8697 -11.4445 -8.81714
LeftHand  -0.123834 9.34568 -2.02399
RightShoulder  -0.846123 -5.97689 27.6139
RightArm  19.0643 18.1114 51.4813
RightForeArm  12.5518 14.7217 6.27329
RightHand  -0.09112 5.01851 -1.31168
LeftUpLeg  -13.0558 -3.46645 5.08904
LeftLeg  58.6372 -2.12308 -3.2261
LeftFoot  1.08395 0.421184 -3.91649
LeftToes  3.13772e-010 -3.14513e-011 3.96022e-013
